:SAMPLES-PER-SECOND 30
:FRAME-RANGE 1-1390
:FULLY-SPECIFIED
:DEGREES
1043
root  -42.3721 40.8701 -83.6971 173.074 8.97066 174.293
RightUpLeg  -3.35837 -0.479398 1.97525
RightLeg  28.5245 -10.5636 -6.39324
RightFoot  1.76792 0.114549 -0.891455
RightToes  -2.9104e-010 0 -3.6325e-017
Spine  17.3132 -1.56773 -7.81598
Spine1  -2.62325 -8.26303 15.4324
HEad  -23.6441 -58.4594 30.2186
LeftShoulder1  3.05932 -5.94747 -26.2532
LeftArm  62.8735 -34.2992 -85.8349
LeftForeArm  2.95224 -11.391 -16.3131
LeftHand  -0.0193449 4.14599 -0.36774
RightShoulder  14.6285 24.5276 45.4373
RightArm  42.4328 13.6118 24.1913
RightForeArm  23.5706 25.8653 4.29311
RightHand  1.50359 6.98294 13.645
LeftUpLeg  -100.982 22.4369 -76.7656
LeftLeg  121.547 -5.72712 8.06324
LeftFoot  9.95074 2.02419 -11.0664
LeftToes  5.45371e-012 -1.3743e-010 1.09575e-010
1044
root  -42.718 40.9921 -84.014 173.037 12.8065 174.197
RightUpLeg  -6.08135 -1.71425 2.68115
RightLeg  31.0667 -7.89875 -5.34795
RightFoot  2.0704 -0.0155349 0.252264
RightToes  -2.9104e-010 0 -3.6325e-017
Spine  17.208 -1.78124 -8.32523
Spine1  -1.62742 -8.55869 15.0442
HEad  -23.9499 -57.8377 31.2957
LeftShoulder1  3.05097 -5.92808 -26.2303
LeftArm  64.456 -34.9937 -86.2148
LeftForeArm  1.50175 -11.7707 -16.1553
LeftHand  -0.0204452 4.2833 -0.391989
RightShoulder  14.3793 24.1584 45.2605
RightArm  43.9634 14.9175 24.6273
RightForeArm  22.0476 25.0544 4.19953
RightHand  1.46112 7.17501 13.0418
LeftUpLeg  -100.318 22.2079 -77.2466
LeftLeg  120.73 -5.35663 7.75758
LeftFoot  8.49291 1.87203 -10.9788
LeftToes  5.45371e-012 -1.3743e-010 1.09575e-010
1045
root  -42.9891 40.7196 -84.291 173.507 17.3137 174.266
RightUpLeg  -8.37912 -3.35281 4.65495
RightLeg  29.802 -8.24728 -5.31313
RightFoot  -0.873927 -0.313506 3.35554
RightToes  -2.9104e-010 0 -3.6325e-017
Spine  17.6214 -1.6498 -8.76527
Spine1  -2.0502 -8.40916 14.4978
HEad  -23.6344 -57.2923 31.6899
LeftShoulder1  3.08315 -5.8466 -26.8792
LeftArm  62.6717 -35.1833 -85.7614
LeftForeArm  3.28902 -11.2669 -16.3695
LeftHand  -0.0214348 4.42513 0.0236466
RightShoulder  14.541 24.3477 45.4627
RightArm  44.6785 14.8855 24.6924
RightForeArm  21.5127 24.5405 4.11819
RightHand  1.40759 7.2878 12.4382
LeftUpLeg  -100.569 22.4494 -78.2355
LeftLeg  120.394 -4.51056 6.5504
LeftFoot  8.04134 1.99735 -11.9497
LeftToes  5.45371e-012 -1.3743e-010 1.09575e-010
1046
root  -43.1333 40.0487 -84.6554 173.793 21.3209 174.942
RightUpLeg  -8.48637 -8.84982 7.74029
RightLeg  24.9612 -10.2168 -5.3701
RightFoot  -4.41546 -0.430039 6.60116
RightToes  -2.9104e-010 0 -3.6325e-017
Spine  17.3975 -1.60933 -8.84637
Spine1  -1.63643 -8.47091 13.9198
HEad  -23.8457 -56.9534 31.7394
LeftShoulder1  3.15228 -5.88897 -27.486
LeftArm  60.1875 -35.7036 -85.6183
LeftForeArm  6.33048 -10.533 -16.6358
LeftHand  -0.024849 4.73284 0.338099
RightShoulder  14.5007 24.2466 45.5062
RightArm  44.6406 14.6958 25.0464
RightForeArm  22.0561 23.7029 3.92869
RightHand  1.42605 7.53873 12.3484
LeftUpLeg  -100.343 23.3907 -78.4183
LeftLeg  121.098 -3.90818 5.46004
LeftFoot  8.52994 2.31957 -13.4897
LeftToes  5.45371e-012 -1.3743e-010 1.09575e-010
1047
root  -43.3257 39.0643 -85.0229 173.698 25.0453 175.299
RightUpLeg  -8.41193 -15.7507 10.7316
RightLeg  21.8688 -9.39156 -4.34158
RightFoot  -5.5813 0.0659513 -2.06167
RightToes  -2.9104e-010 0 -3.6325e-017
Spine  17.4457 -1.703 -8.76328
Spine1  -1.50194 -8.43052 12.9946
HEad  -23.063 -56.6826 30.6049
LeftShoulder1  3.19432 -5.90996 -27.8691
LeftArm  58.8484 -35.9397 -85.6696
LeftForeArm  8.51939 -10.1585 -16.7313
LeftHand  -0.0268007 4.80909 0.149898
RightShoulder  14.4143 23.8741 45.8748
RightArm  44.5714 13.5808 24.6068
RightForeArm  21.951 24.0582 3.99293
RightHand  1.40512 7.38563 12.3162
LeftUpLeg  -99.1811 24.2085 -77.6441
LeftLeg  121.804 -3.48567 4.68574
LeftFoot  9.75855 2.66952 -14.5904
LeftToes  5.45371e-012 -1.3743e-010 1.09575e-010
1048
root  -43.512 37.6119 -85.4812 172.854 28.8547 175.152
RightUpLeg  -8.19528 -13.3184 12.2769
RightLeg  25.7814 -12.4699 -6.70507
RightFoot  -17.0191 -0.754678 -12.844
RightToes  -2.9104e-010 0 -3.6325e-017
Spine  17.5326 -1.66528 -8.7218
Spine1  -1.26442 -8.18513 11.9087
HEad  -23.3499 -56.4425 29.806
LeftShoulder1  3.18571 -5.8385 -28.041
LeftArm  58.2343 -35.2699 -85.6611
LeftForeArm  10.1069 -10.0282 -16.7258
LeftHand  -0.0252185 4.58782 0.0384293
RightShoulder  14.076 23.0895 46.1486
RightArm  44.4056 12.1909 24.1741
RightForeArm  21.5545 24.8167 4.17485
RightHand  1.38808 7.26329 12.2872
LeftUpLeg  -97.6156 24.4607 -76.3683
LeftLeg  123.013 -3.43248 4.39463
LeftFoot  10.7331 2.76562 -14.454
LeftToes  5.45371e-012 -1.3743e-010 1.09575e-010
1049
root  -43.7275 36.1282 -85.9349 172.535 34.0265 177.507
RightUpLeg  -10.8356 -4.3317 16.4517
RightLeg  37.9083 -16.9934 -13.9697
RightFoot  -23.6048 -1.62449 -13.5648
RightToes  -2.9104e-010 0 -3.6325e-017
Spine  18.9926 -1.43064 -5.8835
Spine1  -1.21324 -7.42929 11.1296
HEad  -25.6543 -54.6925 29.5703
LeftShoulder1  3.1846 -5.52039 -29.2581
LeftArm  62.6034 -34.2902 -84.7539
LeftForeArm  7.55653 -11.4431 -16.0631
LeftHand  -0.0300612 4.42043 0.806644
RightShoulder  14.1108 22.5343 47.2972
RightArm  44.2676 11.6545 23.118
RightForeArm  21.1145 25.3848 4.32033
RightHand  1.38296 6.97369 12.5416
LeftUpLeg  -97.0941 25.346 -72.0931
LeftLeg  124.671 -3.83313 4.65734
LeftFoot  11.896 2.51866 -12.5656
LeftToes  5.45371e-012 -1.3743e-010 1.09575e-010
1050
root  -44.0093 35.0983 -86.3466 171.962 38.5999 178.202
RightUpLeg  -12.9146 -0.0262008 17.8658
RightLeg  46.8233 -15.8022 -17.5601
RightFoot  -26.7911 -1.85701 -12.2989
RightToes  -2.9104e-010 0 -3.6325e-017
Spine  18.4131 -2.10396 -5.95087
Spine1  1.66889 -8.11293 11.3834
HEad  -26.4273 -50.7565 28.9144
LeftShoulder1  3.14826 -5.34859 -29.5371
LeftArm  64.4171 -34.0442 -83.7667
LeftForeArm  7.33126 -11.9961 -15.7345
LeftHand  -0.0377819 4.20054 1.59529
RightShoulder  15.153 23.4936 48.9954
RightArm  44.9687 12.4659 22.8617
RightForeArm  20.2737 23.2878 4.038
RightHand  1.3893 6.85834 12.7245
LeftUpLeg  -94.6147 26.2392 -69.3592
LeftLeg  124.993 -5.17737 6.36427
LeftFoot  8.53184 0.933473 -5.62358
LeftToes  5.45371e-012 -1.3743e-010 1.09575e-010
1051
root  -44.0903 34.844 -86.8145 171.093 40.9636 178.267
RightUpLeg  -11.9458 -0.318906 17.5878
RightLeg  48.5933 -14.2206 -16.9388
RightFoot  -28.5227 -2.13161 -12.7706
RightToes  -2.9104e-010 0 -3.6325e-017
Spine  18.8052 -3.02082 -7.47772
Spine1  2.03257 -9.48304 13.5081
HEad  -24.5064 -49.7536 27.0472
LeftShoulder1  3.28624 -5.56838 -30.2084
LeftArm  65.103 -34.3236 -83.5612
LeftForeArm  6.92247 -12.3297 -15.5393
LeftHand  -0.0331409 4.77505 1.65166
RightShoulder  14.3244 21.7964 49.4625
RightArm  44.5789 12.2848 23.0249
RightForeArm  19.9614 23.3231 4.04688
RightHand  1.36573 6.92787 12.4306
LeftUpLeg  -91.215 27.4592 -68.2227
LeftLeg  124.352 -8.6741 11.1267
LeftFoot  7.23781 -0.325158 1.71842
LeftToes  5.45371e-012 -1.3743e-010 1.09575e-010
1052
root  -43.9434 35.1224 -87.2703 171.435 44.3476 178.509
RightUpLeg  -10.0129 1.70087 17.6943
RightLeg  46.7465 -13.5014 -15.1905
RightFoot  -27.9428 -2.06437 -12.7917
RightToes  -2.9104e-010 0 -3.6325e-017
Spine  17.6173 -3.49201 -7.77573
Spine1  2.15506 -10.0149 14.3752
HEad  -23.5553 -50.1097 26.5552
LeftShoulder1  3.31466 -5.496 -30.8226
LeftArm  58.6028 -35.2421 -83.8156
LeftForeArm  12.8889 -10.3548 -16.4333
LeftHand  -0.028761 4.94856 0.643789
RightShoulder  13.4692 20.3688 49.3165
RightArm  42.0043 11.6932 23.1636
RightForeArm  20.0686 24.0622 4.09308
RightHand  1.36617 6.84269 12.5254
LeftUpLeg  -90.6928 27.3732 -68.9479
LeftLeg  124.855 -8.80142 11.0871
LeftFoot  8.8049 -0.130457 0.431999
LeftToes  5.45371e-012 -1.3743e-010 1.09575e-010
